<?xml version="1.0" encoding="UTF-8"?>
<svg id="Layer_1" data-name="Layer 1" xmlns="http://www.w3.org/2000/svg" viewBox="0 0 1260.67 315.93">
  <defs>
    <style>
      .cls-1 {
        font-family: HelveticaRounded-Bold, 'Helvetica Rounded';
        font-size: 288.43px;
      }

      .cls-1, .cls-2 {
        fill: #ff0869;
      }

      .cls-3 {
        letter-spacing: -.02em;
      }
    </style>
  </defs>
  <g>
    <path class="cls-2" d="M151.02,144.69c-23.06,0-32.23,11.06-21.17,24.33,11.06,13.27,30.33,13.27,42.02,0,11.37-12.95,2.21-24.33-20.85-24.33h0Z"/>
    <path class="cls-2" d="M283.39,111.84c-3.16-35.7-8.53-57.18-16.43-63.82,1.9-4.74,3.16-9.79,3.16-15.16,0-18.32-14.53-32.86-32.86-32.86-12.64,0-23.06,7.27-29.07,17.06-17.69-6.63-36.96-9.79-56.55-9.79s-38.86,3.16-56.55,9.79C89.09,7.27,78.66,0,66.03,0,47.7,0,33.17,14.53,33.17,32.86c0,6,1.26,11.06,3.79,15.8-7.27,7.27-13.27,28.43-17.06,63.18C16.74,132.37,0,190.18,0,204.09c0,52.76,50.55,90.04,151.33,111.84,101.41-22.43,151.96-59.39,151.33-111.84,.31-12.64-16.75-72.35-19.27-92.25h0Zm-197.46,26.54c-11.06,0-19.59-11.69-19.59-26.22s8.53-26.22,19.59-26.22,19.59,11.69,19.59,26.22-8.53,26.22-19.59,26.22h0Zm114.36,65.71c-1.26,25.59-23.06,46.12-48.65,46.12s-47.39-20.53-48.65-46.12l-2.53-40.75c-.63-12.64,6.63-23.69,18.32-26.85,9.16-3.16,19.59-4.74,30.33-4.74,12.01,0,23.69,1.9,35.7,5.37,11.69,3.79,18.96,14.53,18.32,26.85l-2.84,40.12Zm17.06-65.71c-11.06,0-19.59-11.69-19.59-26.22s8.53-26.22,19.59-26.22,19.59,11.69,19.59,26.22-8.21,26.22-19.59,26.22Z"/>
  </g>
  <text class="cls-1" transform="translate(366.99 252.06) scale(1.1 1)"><tspan x="0" y="0">T</tspan><tspan class="cls-3" x="192.67" y="0">D</tspan><tspan x="404.37" y="0">AD</tspan></text>
</svg>